G75*
G70*
%OFA0B0*%
%FSLAX24Y24*%
%IPPOS*%
%LPD*%
%AMOC8*
5,1,8,0,0,1.08239X$1,22.5*
%
%ADD10C,0.0020*%
%ADD11R,0.0197X0.0220*%
%ADD12R,0.0315X0.0472*%
%ADD13R,0.0250X0.0472*%
%ADD14C,0.0197*%
%ADD15C,0.0010*%
%ADD16C,0.1063*%
D10*
X008381Y000827D02*
X011281Y000827D01*
X011281Y005977D01*
X008381Y005977D01*
X008381Y000827D01*
D11*
X009485Y002304D03*
X009928Y002304D03*
X009928Y002751D03*
X009485Y002751D03*
D12*
X009233Y003977D03*
X008749Y003977D03*
X010430Y003977D03*
X010914Y003977D03*
D13*
X010028Y003977D03*
X009635Y003977D03*
D14*
X009732Y005030D02*
X009732Y005502D01*
X009930Y005502D01*
X009930Y005030D01*
X009732Y005030D01*
X009732Y005226D02*
X009930Y005226D01*
X009930Y005422D02*
X009732Y005422D01*
D15*
X008031Y004152D02*
X008031Y003902D01*
X008033Y003884D01*
X008038Y003866D01*
X008046Y003849D01*
X008057Y003835D01*
X008071Y003822D01*
X008086Y003812D01*
X008104Y003806D01*
X008122Y003802D01*
X008140Y003802D01*
X008158Y003806D01*
X008176Y003812D01*
X008191Y003822D01*
X008205Y003835D01*
X008216Y003849D01*
X008224Y003866D01*
X008229Y003884D01*
X008231Y003902D01*
X008231Y004152D01*
X008229Y004170D01*
X008224Y004188D01*
X008216Y004205D01*
X008205Y004219D01*
X008191Y004232D01*
X008176Y004242D01*
X008158Y004248D01*
X008140Y004252D01*
X008122Y004252D01*
X008104Y004248D01*
X008086Y004242D01*
X008071Y004232D01*
X008057Y004219D01*
X008046Y004205D01*
X008038Y004188D01*
X008033Y004170D01*
X008031Y004152D01*
X008031Y005402D02*
X008031Y005652D01*
X008033Y005670D01*
X008038Y005688D01*
X008046Y005705D01*
X008057Y005719D01*
X008071Y005732D01*
X008086Y005742D01*
X008104Y005748D01*
X008122Y005752D01*
X008140Y005752D01*
X008158Y005748D01*
X008176Y005742D01*
X008191Y005732D01*
X008205Y005719D01*
X008216Y005705D01*
X008224Y005688D01*
X008229Y005670D01*
X008231Y005652D01*
X008231Y005402D01*
X008229Y005384D01*
X008224Y005366D01*
X008216Y005349D01*
X008205Y005335D01*
X008191Y005322D01*
X008176Y005312D01*
X008158Y005306D01*
X008140Y005302D01*
X008122Y005302D01*
X008104Y005306D01*
X008086Y005312D01*
X008071Y005322D01*
X008057Y005335D01*
X008046Y005349D01*
X008038Y005366D01*
X008033Y005384D01*
X008031Y005402D01*
X011431Y005402D02*
X011431Y005652D01*
X011433Y005670D01*
X011438Y005688D01*
X011446Y005705D01*
X011457Y005719D01*
X011471Y005732D01*
X011486Y005742D01*
X011504Y005748D01*
X011522Y005752D01*
X011540Y005752D01*
X011558Y005748D01*
X011576Y005742D01*
X011591Y005732D01*
X011605Y005719D01*
X011616Y005705D01*
X011624Y005688D01*
X011629Y005670D01*
X011631Y005652D01*
X011631Y005402D01*
X011629Y005384D01*
X011624Y005366D01*
X011616Y005349D01*
X011605Y005335D01*
X011591Y005322D01*
X011576Y005312D01*
X011558Y005306D01*
X011540Y005302D01*
X011522Y005302D01*
X011504Y005306D01*
X011486Y005312D01*
X011471Y005322D01*
X011457Y005335D01*
X011446Y005349D01*
X011438Y005366D01*
X011433Y005384D01*
X011431Y005402D01*
X011431Y004152D02*
X011431Y003902D01*
X011433Y003884D01*
X011438Y003866D01*
X011446Y003849D01*
X011457Y003835D01*
X011471Y003822D01*
X011486Y003812D01*
X011504Y003806D01*
X011522Y003802D01*
X011540Y003802D01*
X011558Y003806D01*
X011576Y003812D01*
X011591Y003822D01*
X011605Y003835D01*
X011616Y003849D01*
X011624Y003866D01*
X011629Y003884D01*
X011631Y003902D01*
X011631Y004152D01*
X011629Y004170D01*
X011624Y004188D01*
X011616Y004205D01*
X011605Y004219D01*
X011591Y004232D01*
X011576Y004242D01*
X011558Y004248D01*
X011540Y004252D01*
X011522Y004252D01*
X011504Y004248D01*
X011486Y004242D01*
X011471Y004232D01*
X011457Y004219D01*
X011446Y004205D01*
X011438Y004188D01*
X011433Y004170D01*
X011431Y004152D01*
D16*
X010231Y000877D03*
X008531Y000877D03*
M02*
