G75*
G70*
%OFA0B0*%
%FSLAX24Y24*%
%IPPOS*%
%LPD*%
%AMOC8*
5,1,8,0,0,1.08239X$1,22.5*
%
%ADD10C,0.0020*%
%ADD11C,0.0060*%
%ADD12C,0.0010*%
D10*
X008381Y000827D02*
X011281Y000827D01*
X011281Y005977D01*
X008381Y005977D01*
X008381Y000827D01*
D11*
X008723Y002238D02*
X008923Y002238D01*
X008823Y002238D02*
X008823Y002539D01*
X008923Y002439D01*
X009054Y002238D02*
X009254Y002238D01*
X009154Y002238D02*
X009154Y002539D01*
X009254Y002439D01*
X009386Y002539D02*
X009586Y002238D01*
X009767Y002238D02*
X009767Y002539D01*
X009917Y002389D01*
X009717Y002389D01*
X010049Y002439D02*
X010049Y002489D01*
X010099Y002539D01*
X010199Y002539D01*
X010249Y002489D01*
X010380Y002489D02*
X010380Y002288D01*
X010430Y002238D01*
X010530Y002238D01*
X010580Y002288D01*
X010380Y002489D01*
X010430Y002539D01*
X010530Y002539D01*
X010580Y002489D01*
X010580Y002288D01*
X010712Y002238D02*
X010912Y002238D01*
X010712Y002439D01*
X010712Y002489D01*
X010762Y002539D01*
X010862Y002539D01*
X010912Y002489D01*
X010332Y002839D02*
X010332Y003039D01*
X010332Y002839D02*
X010232Y002738D01*
X010131Y002839D01*
X010131Y003039D01*
X010000Y002939D02*
X009900Y003039D01*
X009900Y002738D01*
X010000Y002738D02*
X009800Y002738D01*
X009669Y002738D02*
X009619Y002738D01*
X009619Y002788D01*
X009669Y002788D01*
X009669Y002738D01*
X009503Y002788D02*
X009503Y002989D01*
X009453Y003039D01*
X009353Y003039D01*
X009303Y002989D01*
X009503Y002788D01*
X009453Y002738D01*
X009353Y002738D01*
X009303Y002788D01*
X009303Y002989D01*
X010049Y002439D02*
X010249Y002238D01*
X010049Y002238D01*
D12*
X008031Y003902D02*
X008031Y004152D01*
X008033Y004170D01*
X008038Y004188D01*
X008046Y004205D01*
X008057Y004219D01*
X008071Y004232D01*
X008086Y004242D01*
X008104Y004248D01*
X008122Y004252D01*
X008140Y004252D01*
X008158Y004248D01*
X008176Y004242D01*
X008191Y004232D01*
X008205Y004219D01*
X008216Y004205D01*
X008224Y004188D01*
X008229Y004170D01*
X008231Y004152D01*
X008231Y003902D01*
X008229Y003884D01*
X008224Y003866D01*
X008216Y003849D01*
X008205Y003835D01*
X008191Y003822D01*
X008176Y003812D01*
X008158Y003806D01*
X008140Y003802D01*
X008122Y003802D01*
X008104Y003806D01*
X008086Y003812D01*
X008071Y003822D01*
X008057Y003835D01*
X008046Y003849D01*
X008038Y003866D01*
X008033Y003884D01*
X008031Y003902D01*
X008031Y005402D02*
X008031Y005652D01*
X008033Y005670D01*
X008038Y005688D01*
X008046Y005705D01*
X008057Y005719D01*
X008071Y005732D01*
X008086Y005742D01*
X008104Y005748D01*
X008122Y005752D01*
X008140Y005752D01*
X008158Y005748D01*
X008176Y005742D01*
X008191Y005732D01*
X008205Y005719D01*
X008216Y005705D01*
X008224Y005688D01*
X008229Y005670D01*
X008231Y005652D01*
X008231Y005402D01*
X008229Y005384D01*
X008224Y005366D01*
X008216Y005349D01*
X008205Y005335D01*
X008191Y005322D01*
X008176Y005312D01*
X008158Y005306D01*
X008140Y005302D01*
X008122Y005302D01*
X008104Y005306D01*
X008086Y005312D01*
X008071Y005322D01*
X008057Y005335D01*
X008046Y005349D01*
X008038Y005366D01*
X008033Y005384D01*
X008031Y005402D01*
X011431Y005402D02*
X011431Y005652D01*
X011433Y005670D01*
X011438Y005688D01*
X011446Y005705D01*
X011457Y005719D01*
X011471Y005732D01*
X011486Y005742D01*
X011504Y005748D01*
X011522Y005752D01*
X011540Y005752D01*
X011558Y005748D01*
X011576Y005742D01*
X011591Y005732D01*
X011605Y005719D01*
X011616Y005705D01*
X011624Y005688D01*
X011629Y005670D01*
X011631Y005652D01*
X011631Y005402D01*
X011629Y005384D01*
X011624Y005366D01*
X011616Y005349D01*
X011605Y005335D01*
X011591Y005322D01*
X011576Y005312D01*
X011558Y005306D01*
X011540Y005302D01*
X011522Y005302D01*
X011504Y005306D01*
X011486Y005312D01*
X011471Y005322D01*
X011457Y005335D01*
X011446Y005349D01*
X011438Y005366D01*
X011433Y005384D01*
X011431Y005402D01*
X011431Y004152D02*
X011431Y003902D01*
X011433Y003884D01*
X011438Y003866D01*
X011446Y003849D01*
X011457Y003835D01*
X011471Y003822D01*
X011486Y003812D01*
X011504Y003806D01*
X011522Y003802D01*
X011540Y003802D01*
X011558Y003806D01*
X011576Y003812D01*
X011591Y003822D01*
X011605Y003835D01*
X011616Y003849D01*
X011624Y003866D01*
X011629Y003884D01*
X011631Y003902D01*
X011631Y004152D01*
X011629Y004170D01*
X011624Y004188D01*
X011616Y004205D01*
X011605Y004219D01*
X011591Y004232D01*
X011576Y004242D01*
X011558Y004248D01*
X011540Y004252D01*
X011522Y004252D01*
X011504Y004248D01*
X011486Y004242D01*
X011471Y004232D01*
X011457Y004219D01*
X011446Y004205D01*
X011438Y004188D01*
X011433Y004170D01*
X011431Y004152D01*
M02*
