G75*
G70*
%OFA0B0*%
%FSLAX24Y24*%
%IPPOS*%
%LPD*%
%AMOC8*
5,1,8,0,0,1.08239X$1,22.5*
%
%ADD10C,0.0020*%
%ADD11C,0.0010*%
%ADD12C,0.1063*%
%ADD13C,0.0080*%
%ADD14C,0.0220*%
D10*
X008381Y000827D02*
X011281Y000827D01*
X011281Y005977D01*
X008381Y005977D01*
X008381Y000827D01*
D11*
X008031Y003902D02*
X008031Y004152D01*
X008033Y004170D01*
X008038Y004188D01*
X008046Y004205D01*
X008057Y004219D01*
X008071Y004232D01*
X008086Y004242D01*
X008104Y004248D01*
X008122Y004252D01*
X008140Y004252D01*
X008158Y004248D01*
X008176Y004242D01*
X008191Y004232D01*
X008205Y004219D01*
X008216Y004205D01*
X008224Y004188D01*
X008229Y004170D01*
X008231Y004152D01*
X008231Y003902D01*
X008229Y003884D01*
X008224Y003866D01*
X008216Y003849D01*
X008205Y003835D01*
X008191Y003822D01*
X008176Y003812D01*
X008158Y003806D01*
X008140Y003802D01*
X008122Y003802D01*
X008104Y003806D01*
X008086Y003812D01*
X008071Y003822D01*
X008057Y003835D01*
X008046Y003849D01*
X008038Y003866D01*
X008033Y003884D01*
X008031Y003902D01*
X008031Y005402D02*
X008031Y005652D01*
X008033Y005670D01*
X008038Y005688D01*
X008046Y005705D01*
X008057Y005719D01*
X008071Y005732D01*
X008086Y005742D01*
X008104Y005748D01*
X008122Y005752D01*
X008140Y005752D01*
X008158Y005748D01*
X008176Y005742D01*
X008191Y005732D01*
X008205Y005719D01*
X008216Y005705D01*
X008224Y005688D01*
X008229Y005670D01*
X008231Y005652D01*
X008231Y005402D01*
X008229Y005384D01*
X008224Y005366D01*
X008216Y005349D01*
X008205Y005335D01*
X008191Y005322D01*
X008176Y005312D01*
X008158Y005306D01*
X008140Y005302D01*
X008122Y005302D01*
X008104Y005306D01*
X008086Y005312D01*
X008071Y005322D01*
X008057Y005335D01*
X008046Y005349D01*
X008038Y005366D01*
X008033Y005384D01*
X008031Y005402D01*
X011431Y005402D02*
X011431Y005652D01*
X011433Y005670D01*
X011438Y005688D01*
X011446Y005705D01*
X011457Y005719D01*
X011471Y005732D01*
X011486Y005742D01*
X011504Y005748D01*
X011522Y005752D01*
X011540Y005752D01*
X011558Y005748D01*
X011576Y005742D01*
X011591Y005732D01*
X011605Y005719D01*
X011616Y005705D01*
X011624Y005688D01*
X011629Y005670D01*
X011631Y005652D01*
X011631Y005402D01*
X011629Y005384D01*
X011624Y005366D01*
X011616Y005349D01*
X011605Y005335D01*
X011591Y005322D01*
X011576Y005312D01*
X011558Y005306D01*
X011540Y005302D01*
X011522Y005302D01*
X011504Y005306D01*
X011486Y005312D01*
X011471Y005322D01*
X011457Y005335D01*
X011446Y005349D01*
X011438Y005366D01*
X011433Y005384D01*
X011431Y005402D01*
X011431Y004152D02*
X011431Y003902D01*
X011433Y003884D01*
X011438Y003866D01*
X011446Y003849D01*
X011457Y003835D01*
X011471Y003822D01*
X011486Y003812D01*
X011504Y003806D01*
X011522Y003802D01*
X011540Y003802D01*
X011558Y003806D01*
X011576Y003812D01*
X011591Y003822D01*
X011605Y003835D01*
X011616Y003849D01*
X011624Y003866D01*
X011629Y003884D01*
X011631Y003902D01*
X011631Y004152D01*
X011629Y004170D01*
X011624Y004188D01*
X011616Y004205D01*
X011605Y004219D01*
X011591Y004232D01*
X011576Y004242D01*
X011558Y004248D01*
X011540Y004252D01*
X011522Y004252D01*
X011504Y004248D01*
X011486Y004242D01*
X011471Y004232D01*
X011457Y004219D01*
X011446Y004205D01*
X011438Y004188D01*
X011433Y004170D01*
X011431Y004152D01*
D12*
X010231Y000877D03*
X008531Y000877D03*
D13*
X009112Y001215D02*
X009601Y001215D01*
X009628Y001280D02*
X009544Y001077D01*
X009173Y001077D01*
X009169Y001094D01*
X009135Y001175D01*
X009091Y001251D01*
X009037Y001321D01*
X008975Y001383D01*
X008905Y001437D01*
X008829Y001481D01*
X008748Y001515D01*
X008663Y001537D01*
X008631Y001542D01*
X008631Y005727D01*
X011031Y005727D01*
X011031Y001077D01*
X010919Y001077D01*
X010835Y001280D01*
X010635Y001481D01*
X010373Y001589D01*
X010090Y001589D01*
X009828Y001481D01*
X009628Y001280D01*
X009642Y001294D02*
X009058Y001294D01*
X008986Y001372D02*
X009720Y001372D01*
X009799Y001451D02*
X008881Y001451D01*
X008693Y001529D02*
X009946Y001529D01*
X009569Y001137D02*
X009151Y001137D01*
X008631Y001608D02*
X011031Y001608D01*
X011031Y001686D02*
X008631Y001686D01*
X008631Y001765D02*
X011031Y001765D01*
X011031Y001843D02*
X008631Y001843D01*
X008631Y001922D02*
X011031Y001922D01*
X011031Y002000D02*
X008631Y002000D01*
X008631Y002079D02*
X011031Y002079D01*
X011031Y002157D02*
X008631Y002157D01*
X008631Y002236D02*
X011031Y002236D01*
X011031Y002314D02*
X008631Y002314D01*
X008631Y002393D02*
X011031Y002393D01*
X011031Y002471D02*
X008631Y002471D01*
X008631Y002550D02*
X011031Y002550D01*
X011031Y002628D02*
X008631Y002628D01*
X008631Y002707D02*
X011031Y002707D01*
X011031Y002785D02*
X008631Y002785D01*
X008631Y002864D02*
X011031Y002864D01*
X011031Y002942D02*
X008631Y002942D01*
X008631Y003021D02*
X011031Y003021D01*
X011031Y003099D02*
X008631Y003099D01*
X008631Y003178D02*
X011031Y003178D01*
X011031Y003256D02*
X008631Y003256D01*
X008631Y003335D02*
X011031Y003335D01*
X011031Y003413D02*
X008631Y003413D01*
X008631Y003492D02*
X011031Y003492D01*
X011031Y003570D02*
X008631Y003570D01*
X008631Y003649D02*
X011031Y003649D01*
X011031Y003727D02*
X008631Y003727D01*
X008631Y003806D02*
X011031Y003806D01*
X011031Y003884D02*
X008631Y003884D01*
X008631Y003963D02*
X011031Y003963D01*
X011031Y004041D02*
X008631Y004041D01*
X008631Y004120D02*
X011031Y004120D01*
X011031Y004198D02*
X008631Y004198D01*
X008631Y004277D02*
X011031Y004277D01*
X011031Y004355D02*
X008631Y004355D01*
X008631Y004434D02*
X011031Y004434D01*
X011031Y004512D02*
X008631Y004512D01*
X008631Y004591D02*
X011031Y004591D01*
X011031Y004669D02*
X008631Y004669D01*
X008631Y004748D02*
X011031Y004748D01*
X011031Y004826D02*
X008631Y004826D01*
X008631Y004905D02*
X011031Y004905D01*
X011031Y004983D02*
X008631Y004983D01*
X008631Y005062D02*
X011031Y005062D01*
X011031Y005140D02*
X008631Y005140D01*
X008631Y005219D02*
X011031Y005219D01*
X011031Y005297D02*
X008631Y005297D01*
X008631Y005376D02*
X011031Y005376D01*
X011031Y005454D02*
X008631Y005454D01*
X008631Y005533D02*
X011031Y005533D01*
X011031Y005611D02*
X008631Y005611D01*
X008631Y005690D02*
X011031Y005690D01*
X011031Y001529D02*
X010517Y001529D01*
X010664Y001451D02*
X011031Y001451D01*
X011031Y001372D02*
X010743Y001372D01*
X010821Y001294D02*
X011031Y001294D01*
X011031Y001215D02*
X010862Y001215D01*
X010894Y001137D02*
X011031Y001137D01*
D14*
X010931Y004777D03*
X010931Y005127D03*
X010931Y005477D03*
X008731Y005477D03*
X008731Y005127D03*
X008731Y004777D03*
M02*
