G75*
G70*
%OFA0B0*%
%FSLAX24Y24*%
%IPPOS*%
%LPD*%
%AMOC8*
5,1,8,0,0,1.08239X$1,22.5*
%
%ADD10C,0.0020*%
%ADD11C,0.0010*%
%ADD12C,0.1063*%
%ADD13C,0.0080*%
%ADD14C,0.0220*%
D10*
X008381Y000827D02*
X011281Y000827D01*
X011281Y006127D01*
X008381Y006127D01*
X008381Y000827D01*
D11*
X008031Y004052D02*
X008031Y004302D01*
X008033Y004320D01*
X008038Y004338D01*
X008046Y004355D01*
X008057Y004369D01*
X008071Y004382D01*
X008086Y004392D01*
X008104Y004398D01*
X008122Y004402D01*
X008140Y004402D01*
X008158Y004398D01*
X008176Y004392D01*
X008191Y004382D01*
X008205Y004369D01*
X008216Y004355D01*
X008224Y004338D01*
X008229Y004320D01*
X008231Y004302D01*
X008231Y004052D01*
X008229Y004034D01*
X008224Y004016D01*
X008216Y003999D01*
X008205Y003985D01*
X008191Y003972D01*
X008176Y003962D01*
X008158Y003956D01*
X008140Y003952D01*
X008122Y003952D01*
X008104Y003956D01*
X008086Y003962D01*
X008071Y003972D01*
X008057Y003985D01*
X008046Y003999D01*
X008038Y004016D01*
X008033Y004034D01*
X008031Y004052D01*
X008031Y005552D02*
X008031Y005802D01*
X008033Y005820D01*
X008038Y005838D01*
X008046Y005855D01*
X008057Y005869D01*
X008071Y005882D01*
X008086Y005892D01*
X008104Y005898D01*
X008122Y005902D01*
X008140Y005902D01*
X008158Y005898D01*
X008176Y005892D01*
X008191Y005882D01*
X008205Y005869D01*
X008216Y005855D01*
X008224Y005838D01*
X008229Y005820D01*
X008231Y005802D01*
X008231Y005552D01*
X008229Y005534D01*
X008224Y005516D01*
X008216Y005499D01*
X008205Y005485D01*
X008191Y005472D01*
X008176Y005462D01*
X008158Y005456D01*
X008140Y005452D01*
X008122Y005452D01*
X008104Y005456D01*
X008086Y005462D01*
X008071Y005472D01*
X008057Y005485D01*
X008046Y005499D01*
X008038Y005516D01*
X008033Y005534D01*
X008031Y005552D01*
X011431Y005552D02*
X011431Y005802D01*
X011433Y005820D01*
X011438Y005838D01*
X011446Y005855D01*
X011457Y005869D01*
X011471Y005882D01*
X011486Y005892D01*
X011504Y005898D01*
X011522Y005902D01*
X011540Y005902D01*
X011558Y005898D01*
X011576Y005892D01*
X011591Y005882D01*
X011605Y005869D01*
X011616Y005855D01*
X011624Y005838D01*
X011629Y005820D01*
X011631Y005802D01*
X011631Y005552D01*
X011629Y005534D01*
X011624Y005516D01*
X011616Y005499D01*
X011605Y005485D01*
X011591Y005472D01*
X011576Y005462D01*
X011558Y005456D01*
X011540Y005452D01*
X011522Y005452D01*
X011504Y005456D01*
X011486Y005462D01*
X011471Y005472D01*
X011457Y005485D01*
X011446Y005499D01*
X011438Y005516D01*
X011433Y005534D01*
X011431Y005552D01*
X011431Y004302D02*
X011431Y004052D01*
X011433Y004034D01*
X011438Y004016D01*
X011446Y003999D01*
X011457Y003985D01*
X011471Y003972D01*
X011486Y003962D01*
X011504Y003956D01*
X011522Y003952D01*
X011540Y003952D01*
X011558Y003956D01*
X011576Y003962D01*
X011591Y003972D01*
X011605Y003985D01*
X011616Y003999D01*
X011624Y004016D01*
X011629Y004034D01*
X011631Y004052D01*
X011631Y004302D01*
X011629Y004320D01*
X011624Y004338D01*
X011616Y004355D01*
X011605Y004369D01*
X011591Y004382D01*
X011576Y004392D01*
X011558Y004398D01*
X011540Y004402D01*
X011522Y004402D01*
X011504Y004398D01*
X011486Y004392D01*
X011471Y004382D01*
X011457Y004369D01*
X011446Y004355D01*
X011438Y004338D01*
X011433Y004320D01*
X011431Y004302D01*
D12*
X010281Y000877D03*
X008481Y000877D03*
D13*
X008987Y001321D02*
X008925Y001383D01*
X008855Y001437D01*
X008779Y001481D01*
X008698Y001515D01*
X008631Y001532D01*
X008631Y005877D01*
X011031Y005877D01*
X011031Y001077D01*
X010969Y001077D01*
X010885Y001280D01*
X010685Y001481D01*
X010423Y001589D01*
X010140Y001589D01*
X009878Y001481D01*
X009678Y001280D01*
X009594Y001077D01*
X009123Y001077D01*
X009119Y001094D01*
X009085Y001175D01*
X009041Y001251D01*
X008987Y001321D01*
X009014Y001287D02*
X009685Y001287D01*
X009648Y001208D02*
X009066Y001208D01*
X009104Y001130D02*
X009616Y001130D01*
X009763Y001365D02*
X008943Y001365D01*
X008843Y001444D02*
X009842Y001444D01*
X009979Y001522D02*
X008669Y001522D01*
X008631Y001601D02*
X011031Y001601D01*
X011031Y001679D02*
X008631Y001679D01*
X008631Y001758D02*
X011031Y001758D01*
X011031Y001836D02*
X008631Y001836D01*
X008631Y001915D02*
X011031Y001915D01*
X011031Y001993D02*
X008631Y001993D01*
X008631Y002072D02*
X011031Y002072D01*
X011031Y002150D02*
X008631Y002150D01*
X008631Y002229D02*
X011031Y002229D01*
X011031Y002307D02*
X008631Y002307D01*
X008631Y002386D02*
X011031Y002386D01*
X011031Y002464D02*
X008631Y002464D01*
X008631Y002543D02*
X011031Y002543D01*
X011031Y002621D02*
X008631Y002621D01*
X008631Y002700D02*
X011031Y002700D01*
X011031Y002778D02*
X008631Y002778D01*
X008631Y002857D02*
X011031Y002857D01*
X011031Y002935D02*
X008631Y002935D01*
X008631Y003014D02*
X011031Y003014D01*
X011031Y003092D02*
X008631Y003092D01*
X008631Y003171D02*
X011031Y003171D01*
X011031Y003249D02*
X008631Y003249D01*
X008631Y003328D02*
X011031Y003328D01*
X011031Y003406D02*
X008631Y003406D01*
X008631Y003485D02*
X011031Y003485D01*
X011031Y003563D02*
X008631Y003563D01*
X008631Y003642D02*
X011031Y003642D01*
X011031Y003720D02*
X008631Y003720D01*
X008631Y003799D02*
X011031Y003799D01*
X011031Y003877D02*
X008631Y003877D01*
X008631Y003956D02*
X011031Y003956D01*
X011031Y004034D02*
X008631Y004034D01*
X008631Y004113D02*
X011031Y004113D01*
X011031Y004191D02*
X008631Y004191D01*
X008631Y004270D02*
X011031Y004270D01*
X011031Y004348D02*
X008631Y004348D01*
X008631Y004427D02*
X011031Y004427D01*
X011031Y004505D02*
X008631Y004505D01*
X008631Y004584D02*
X011031Y004584D01*
X011031Y004662D02*
X008631Y004662D01*
X008631Y004741D02*
X011031Y004741D01*
X011031Y004819D02*
X008631Y004819D01*
X008631Y004898D02*
X011031Y004898D01*
X011031Y004976D02*
X008631Y004976D01*
X008631Y005055D02*
X011031Y005055D01*
X011031Y005133D02*
X008631Y005133D01*
X008631Y005212D02*
X011031Y005212D01*
X011031Y005290D02*
X008631Y005290D01*
X008631Y005369D02*
X011031Y005369D01*
X011031Y005447D02*
X008631Y005447D01*
X008631Y005526D02*
X011031Y005526D01*
X011031Y005604D02*
X008631Y005604D01*
X008631Y005683D02*
X011031Y005683D01*
X011031Y005761D02*
X008631Y005761D01*
X008631Y005840D02*
X011031Y005840D01*
X011031Y001522D02*
X010584Y001522D01*
X010721Y001444D02*
X011031Y001444D01*
X011031Y001365D02*
X010800Y001365D01*
X010878Y001287D02*
X011031Y001287D01*
X011031Y001208D02*
X010915Y001208D01*
X010947Y001130D02*
X011031Y001130D01*
D14*
X010931Y004927D03*
X010931Y005277D03*
X010931Y005627D03*
X008731Y005627D03*
X008731Y005277D03*
X008731Y004927D03*
M02*
