G75*
G70*
%OFA0B0*%
%FSLAX24Y24*%
%IPPOS*%
%LPD*%
%AMOC8*
5,1,8,0,0,1.08239X$1,22.5*
%
%ADD10C,0.0020*%
%ADD11C,0.0200*%
%ADD12C,0.0010*%
D10*
X008381Y000827D02*
X011281Y000827D01*
X011281Y006127D01*
X008381Y006127D01*
X008381Y000827D01*
D11*
X008129Y004055D02*
X008129Y004299D01*
X008129Y005551D02*
X008129Y005796D01*
X011530Y005796D02*
X011530Y005551D01*
X011530Y004299D02*
X011530Y004055D01*
D12*
X008031Y004052D02*
X008031Y004302D01*
X008033Y004320D01*
X008038Y004338D01*
X008046Y004355D01*
X008057Y004369D01*
X008071Y004382D01*
X008086Y004392D01*
X008104Y004398D01*
X008122Y004402D01*
X008140Y004402D01*
X008158Y004398D01*
X008176Y004392D01*
X008191Y004382D01*
X008205Y004369D01*
X008216Y004355D01*
X008224Y004338D01*
X008229Y004320D01*
X008231Y004302D01*
X008231Y004052D01*
X008229Y004034D01*
X008224Y004016D01*
X008216Y003999D01*
X008205Y003985D01*
X008191Y003972D01*
X008176Y003962D01*
X008158Y003956D01*
X008140Y003952D01*
X008122Y003952D01*
X008104Y003956D01*
X008086Y003962D01*
X008071Y003972D01*
X008057Y003985D01*
X008046Y003999D01*
X008038Y004016D01*
X008033Y004034D01*
X008031Y004052D01*
X008031Y005552D02*
X008031Y005802D01*
X008033Y005820D01*
X008038Y005838D01*
X008046Y005855D01*
X008057Y005869D01*
X008071Y005882D01*
X008086Y005892D01*
X008104Y005898D01*
X008122Y005902D01*
X008140Y005902D01*
X008158Y005898D01*
X008176Y005892D01*
X008191Y005882D01*
X008205Y005869D01*
X008216Y005855D01*
X008224Y005838D01*
X008229Y005820D01*
X008231Y005802D01*
X008231Y005552D01*
X008229Y005534D01*
X008224Y005516D01*
X008216Y005499D01*
X008205Y005485D01*
X008191Y005472D01*
X008176Y005462D01*
X008158Y005456D01*
X008140Y005452D01*
X008122Y005452D01*
X008104Y005456D01*
X008086Y005462D01*
X008071Y005472D01*
X008057Y005485D01*
X008046Y005499D01*
X008038Y005516D01*
X008033Y005534D01*
X008031Y005552D01*
X011431Y005552D02*
X011431Y005802D01*
X011433Y005820D01*
X011438Y005838D01*
X011446Y005855D01*
X011457Y005869D01*
X011471Y005882D01*
X011486Y005892D01*
X011504Y005898D01*
X011522Y005902D01*
X011540Y005902D01*
X011558Y005898D01*
X011576Y005892D01*
X011591Y005882D01*
X011605Y005869D01*
X011616Y005855D01*
X011624Y005838D01*
X011629Y005820D01*
X011631Y005802D01*
X011631Y005552D01*
X011629Y005534D01*
X011624Y005516D01*
X011616Y005499D01*
X011605Y005485D01*
X011591Y005472D01*
X011576Y005462D01*
X011558Y005456D01*
X011540Y005452D01*
X011522Y005452D01*
X011504Y005456D01*
X011486Y005462D01*
X011471Y005472D01*
X011457Y005485D01*
X011446Y005499D01*
X011438Y005516D01*
X011433Y005534D01*
X011431Y005552D01*
X011431Y004302D02*
X011431Y004052D01*
X011433Y004034D01*
X011438Y004016D01*
X011446Y003999D01*
X011457Y003985D01*
X011471Y003972D01*
X011486Y003962D01*
X011504Y003956D01*
X011522Y003952D01*
X011540Y003952D01*
X011558Y003956D01*
X011576Y003962D01*
X011591Y003972D01*
X011605Y003985D01*
X011616Y003999D01*
X011624Y004016D01*
X011629Y004034D01*
X011631Y004052D01*
X011631Y004302D01*
X011629Y004320D01*
X011624Y004338D01*
X011616Y004355D01*
X011605Y004369D01*
X011591Y004382D01*
X011576Y004392D01*
X011558Y004398D01*
X011540Y004402D01*
X011522Y004402D01*
X011504Y004398D01*
X011486Y004392D01*
X011471Y004382D01*
X011457Y004369D01*
X011446Y004355D01*
X011438Y004338D01*
X011433Y004320D01*
X011431Y004302D01*
M02*
